<svg width="2186" height="279" viewBox="0 0 2186 279" fill="none" xmlns="http://www.w3.org/2000/svg">
<mask id="path-1-outside-1" maskUnits="userSpaceOnUse" x="0" y="0" width="2186" height="280" fill="black">
<rect fill="white" width="2186" height="280"/>
<path fill-rule="evenodd" clip-rule="evenodd" d="M265 3.71562L236.715 31.9998H21.9992C10.9547 31.9998 2.00027 40.9544 2.00027 51.9999V257C2.00027 268.046 10.9547 277 21.9992 277H2164C2175.05 277 2184 268.046 2184 257V51.9999C2184 40.9544 2175.05 31.9998 2164 31.9998H293.285L265 3.71562Z"/>
</mask>
<path fill-rule="evenodd" clip-rule="evenodd" d="M265 3.71562L236.715 31.9998H21.9992C10.9547 31.9998 2.00027 40.9544 2.00027 51.9999V257C2.00027 268.046 10.9547 277 21.9992 277H2164C2175.05 277 2184 268.046 2184 257V51.9999C2184 40.9544 2175.05 31.9998 2164 31.9998H293.285L265 3.71562Z" fill="#F7F7F7"/>
<path d="M236.715 31.9998V33.9998H237.543L238.129 33.4141L236.715 31.9998ZM265 3.71562L266.414 2.30138L265 0.887228L263.586 2.30138L265 3.71562ZM293.285 31.9998L291.871 33.4141L292.456 33.9998H293.285V31.9998ZM238.129 33.4141L266.414 5.12985L263.586 2.30138L235.301 30.5856L238.129 33.4141ZM21.9992 33.9998H236.715V29.9998H21.9992V33.9998ZM4.00027 51.9999C4.00027 42.0588 12.0593 33.9998 21.9992 33.9998V29.9998C9.85002 29.9998 0.000272036 39.8499 0.000272036 51.9999H4.00027ZM4.00027 257V51.9999H0.000272036V257H4.00027ZM21.9992 275C12.0593 275 4.00027 266.941 4.00027 257H0.000272036C0.000272036 269.15 9.85003 279 21.9992 279V275ZM2164 275H21.9992V279H2164V275ZM2182 257C2182 266.941 2173.94 275 2164 275V279C2176.15 279 2186 269.15 2186 257H2182ZM2182 51.9999V257H2186V51.9999H2182ZM2164 33.9998C2173.94 33.9998 2182 42.0589 2182 51.9999H2186C2186 39.8499 2176.15 29.9998 2164 29.9998V33.9998ZM293.285 33.9998H2164V29.9998H293.285V33.9998ZM263.586 5.12985L291.871 33.4141L294.699 30.5856L266.414 2.30138L263.586 5.12985Z" fill="#5F6062" fill-opacity="0.5" mask="url(#path-1-outside-1)"/>
</svg>
