<svg width="129" height="26" viewBox="0 0 129 26" fill="none" xmlns="http://www.w3.org/2000/svg">
<path fill-rule="evenodd" clip-rule="evenodd" d="M53.385 10.2066L56.329 2.11234C56.503 1.63438 56.4318 1.10067 56.1408 0.68294C55.8485 0.266384 55.3711 0.0182199 54.8617 0.0182199H50.2631C49.5591 0.0182199 48.9428 0.488676 48.7576 1.16784L46.9422 8.01099H45.581V1.57956C45.581 0.716652 44.8812 0.0182199 44.0189 0.0182199H40.1168C39.2546 0.0182199 38.5549 0.716652 38.5549 1.57956V8.01099H37.0226L34.5592 1.04526C34.335 0.42842 33.7474 0.0182199 33.0908 0.0182199H28.5396C28.0084 0.0182199 27.5146 0.287468 27.2264 0.733844C26.9393 1.18047 26.8983 1.74159 27.1184 2.22468L30.7509 10.215L27.0823 19.7517C26.8971 20.2309 26.9621 20.7709 27.2522 21.1959C27.5444 21.6196 28.0259 21.8729 28.5396 21.8729H33.0908C33.7772 21.8729 34.3823 21.426 34.5839 20.7706L36.646 13.9428H38.5549V20.3122C38.5549 21.1739 39.2546 21.8729 40.1168 21.8729H44.0189C44.8812 21.8729 45.581 21.1739 45.581 20.3122V13.9428H47.2202L48.7421 20.6622C48.9056 21.3711 49.5365 21.8729 50.2631 21.8729H54.8617C55.3566 21.8729 55.8227 21.6377 56.1172 21.2383C56.4114 20.8408 56.4989 20.3263 56.3527 19.8532L53.385 10.2066ZM80.054 0.862448C80.0493 0.853936 80.0434 0.846498 80.0374 0.839095C80.0315 0.831813 80.0257 0.824565 80.0211 0.81636C79.9677 0.722392 79.908 0.63534 79.8368 0.555232C79.8297 0.547136 79.8231 0.538814 79.8166 0.530488L79.8165 0.530366C79.808 0.519524 79.7994 0.508675 79.7895 0.498308C79.7031 0.409156 79.6053 0.329944 79.5005 0.262772C79.487 0.2544 79.4729 0.247187 79.4589 0.240014C79.4472 0.23404 79.4355 0.228093 79.4243 0.221528C79.3358 0.172136 79.2452 0.132964 79.1495 0.101044C79.137 0.097294 79.125 0.0934238 79.1131 0.0895957C79.0925 0.0829625 79.0723 0.0764552 79.0508 0.0709161C78.9273 0.039304 78.8007 0.0182199 78.667 0.0182199H74.7649C74.6445 0.0182199 74.5294 0.0344881 74.4171 0.0600801C74.3965 0.0651296 74.3759 0.0719213 74.3554 0.0786899C74.3441 0.0824304 74.3327 0.0861636 74.3215 0.089592C74.2433 0.112804 74.167 0.1396 74.093 0.174824C74.0579 0.192016 74.0229 0.211588 73.989 0.230852C73.9241 0.269408 73.8614 0.311268 73.8027 0.358252C73.771 0.38264 73.739 0.407336 73.71 0.434748C73.6454 0.495004 73.5877 0.55946 73.534 0.629628C73.5283 0.636225 73.5223 0.642253 73.5163 0.648224C73.5072 0.657229 73.4982 0.666106 73.4909 0.676612L67.0421 9.78076H66.9599V1.57956C66.9599 0.716652 66.2589 0.0182199 65.3977 0.0182199H61.4947C60.6334 0.0182199 59.9348 0.716652 59.9348 1.57956V20.3122C59.9348 20.5552 59.9945 20.7826 60.0953 20.9895C60.0984 20.9961 60.1005 21.0028 60.1027 21.0095L60.1027 21.0096C60.1047 21.0159 60.1067 21.0223 60.1095 21.0284C60.1138 21.0366 60.1196 21.0442 60.1254 21.0518C60.131 21.059 60.1365 21.0662 60.1406 21.0739C60.194 21.1681 60.2559 21.2549 60.3257 21.3359C60.3329 21.3441 60.3395 21.3526 60.3461 21.3611C60.3545 21.3719 60.3627 21.3826 60.3721 21.3922C60.4594 21.4826 60.5573 21.56 60.6622 21.6274C60.6764 21.637 60.6921 21.6449 60.7079 21.6528C60.7159 21.6568 60.7239 21.6608 60.7319 21.6651C60.7344 21.6665 60.7369 21.6679 60.7394 21.6693C60.8268 21.7172 60.9174 21.7569 61.0132 21.7886L61.0255 21.7927C61.0549 21.8023 61.0828 21.8116 61.1109 21.8187C61.2355 21.8515 61.3619 21.8729 61.4947 21.8729H65.3977C65.5181 21.8729 65.6334 21.856 65.7455 21.8304C65.7663 21.8261 65.7861 21.8194 65.8059 21.8127C65.8176 21.8087 65.8294 21.8047 65.8413 21.8012C65.9195 21.7777 65.9955 21.7509 66.0687 21.7157C66.1046 21.6988 66.1385 21.6792 66.1725 21.6588C66.2384 21.6211 66.3011 21.5787 66.3609 21.5326L66.3892 21.5098L66.3892 21.5097C66.4106 21.4926 66.4318 21.4756 66.4526 21.457C66.5163 21.3968 66.5749 21.3305 66.6285 21.2612C66.6344 21.2538 66.6412 21.2471 66.648 21.2403C66.6564 21.232 66.6649 21.2236 66.6717 21.2139L73.1123 12.1206H73.2029V20.3122C73.2029 21.1739 73.9027 21.8729 74.7649 21.8729H78.667C79.5292 21.8729 80.228 21.1739 80.228 20.3122V1.57956C80.228 1.335 80.1672 1.107 80.0673 0.901592C80.0637 0.894874 80.0619 0.887923 80.0602 0.881067C80.0586 0.874691 80.0571 0.868397 80.054 0.862448ZM98.18 0.0182199H102.082C102.944 0.0182199 103.643 0.716652 103.643 1.57956V20.3122C103.643 21.1739 102.944 21.8729 102.082 21.8729H98.18C97.3177 21.8729 96.6191 21.1739 96.6191 20.3122V13.9428H91.155V20.3122C91.155 21.1739 90.4563 21.8729 89.5951 21.8729H85.691C84.8296 21.8729 84.13 21.1739 84.13 20.3122V1.57956C84.13 0.716652 84.8296 0.0182199 85.691 0.0182199H89.5951C90.4563 0.0182199 91.155 0.716652 91.155 1.57956V7.94804H96.6191V1.57956C96.6191 0.716652 97.3177 0.0182199 98.18 0.0182199ZM22.5414 15.6282V1.57956C22.5414 0.716652 21.8436 0.0182199 20.9814 0.0182199H6.93113C6.06981 0.0182199 5.37014 0.716652 5.37014 1.57956L3.0293 15.6282H1.56171C0.699463 15.6282 0.000709057 16.3279 0.000709057 17.1892V24.4339C0.000709057 25.2956 0.699463 25.9949 1.56171 25.9949H5.37014C6.23238 25.9949 6.93113 25.2956 6.93113 24.4339V21.8729H17.8593V24.4339C17.8593 25.2956 18.558 25.9949 19.4204 25.9949H22.5414C23.4048 25.9949 24.1034 25.2956 24.1034 24.4339V17.1892C24.1034 16.3279 23.4048 15.6282 22.5414 15.6282ZM16.0174 16.0128L9.6765 16.0035L11.2006 6.26264H16.0174V16.0128ZM117.693 0.00225997C111.251 0.00225997 106.751 4.50161 106.751 10.9451C106.751 17.3877 111.251 21.8883 117.693 21.8883C124.136 21.8883 128.636 17.3877 128.636 10.9451C128.636 4.50161 124.136 0.00225997 117.693 0.00225997ZM117.693 15.6339C114.713 15.6339 113.003 13.9244 113.003 10.9451C113.003 7.96493 114.713 6.2548 117.693 6.2548C120.673 6.2548 122.384 7.96493 122.384 10.9451C122.384 13.9244 120.673 15.6339 117.693 15.6339Z" fill="white"/>
</svg>
